# xmcd
# Track frame offsets:
# 150
# 16470
# 39297
# 61265
# 77042
# 96915
# 117620
# 137875
# 157922
# 175972
# 192132
# 216817
#
# Disc length: 3118 seconds
# Revision: 0
# Processed by: cddbd v1.4PL0 Copyright (c) Steve Scherf et al.
# Submitted via: VisiTrax 2.9.6.190 - For more info visit www.synapsa.com
#
DISCID=9f0c2c0c
DTITLE=David Clayton-Thomas - Bloodlines
DYEAR=1900
DGENRE=
TTITLE0=Nawlins Gal
TTITLE1=Mornin' Blues
TTITLE2=Dancing to LaBelle
TTITLE3=We tried
TTITLE4=Biscuit
TTITLE5=Ashleigh's song
TTITLE6=Secretive child
TTITLE7=I can't complain
TTITLE8=Verbal abuse
TTITLE9=Bobby's blues
TTITLE10=Surely you know
TTITLE11=After you fall
EXTD=
EXTT0=
EXTT1=
EXTT2=
EXTT3=
EXTT4=
EXTT5=
EXTT6=
EXTT7=
EXTT8=
EXTT9=
EXTT10=
EXTT11=
PLAYORDER=
